<svg xmlns="http://www.w3.org/2000/svg" viewBox="0 0 85.2 98.38"><defs><style>.cls-1{fill:#4fc9f5;}.cls-2{fill:#fff;}</style></defs><g id="Layer_2" data-name="Layer 2"><g id="Layer_1-2" data-name="Layer 1"><polygon class="cls-1" points="42.6 0 0 24.59 0 73.78 42.6 98.38 85.2 73.78 85.2 24.59 42.6 0"/><path class="cls-2" d="M44.31,19.8a27.67,27.67,0,0,1,20.93,8.84l-1.8,1.89a25.51,25.51,0,0,0-19.13-8.16c-14.33,0-25.57,10.9-25.57,27,0,16,11.24,27.11,25.57,27.11A25.57,25.57,0,0,0,62.5,68.79V53.09H38.9V50.52H65.24V69.91a27.93,27.93,0,0,1-20.93,9.18C28.44,79.09,15.74,67,15.74,49.4S28.44,19.8,44.31,19.8Z"/></g></g></svg>